<?xml version="1.0" encoding="utf-8"?>
<!-- Generator: Adobe Illustrator 23.1.0, SVG Export Plug-In . SVG Version: 6.00 Build 0)  -->
<svg version="1.1" id="Слой_1" xmlns="http://www.w3.org/2000/svg" xmlns:xlink="http://www.w3.org/1999/xlink" x="0px" y="0px"
	 viewBox="0 0 24 24" style="enable-background:new 0 0 24 24;" xml:space="preserve">
<path d="M20,3h-1V1h-2v2H7V1H5v2H4C2.9,3,2,3.9,2,5v16c0,1.1,0.9,2,2,2h16c1.1,0,2-0.9,2-2V5C22,3.9,21.1,3,20,3z M20,21H4V8h16V21z
	"/>
<rect x="6.2" y="9.8" width="1.9" height="1.9"/>
<rect x="6.2" y="13.3" width="1.9" height="1.9"/>
<rect x="11.2" y="13.3" width="1.9" height="1.9"/>
<rect x="6.2" y="16.8" width="1.9" height="1.9"/>
<rect x="16.2" y="16.8" width="1.9" height="1.9"/>
<rect x="11.2" y="16.8" width="1.9" height="1.9"/>
</svg>
