<svg id="Слой_1" data-name="Слой 1" xmlns="http://www.w3.org/2000/svg" viewBox="0 0 11.25 10.5"><defs><style>.cls-1{fill:#8c8c8c;}.cls-2{fill:#7e7e7e;}.cls-3{fill:#d3d3d3;}.cls-4{opacity:0.5;isolation:isolate;}.cls-5{fill:#333;}.cls-6{fill:#e1e1e1;}.cls-7{fill:#d0d0d0;}.cls-8{fill:#9e9e9e;}.cls-9{fill:#747474;}.cls-10{fill:#ececec;}.cls-11{fill:#fff;}</style></defs><title>calendarBtn</title><rect class="cls-1" y="5.66" width="0.67" height="1.1"/><rect class="cls-1" x="10.55" y="2.71" width="0.67" height="1.1"/><path class="cls-1" d="M44.09,29.37,38,27.23a.7.7,0,0,0-.75.18l-1.67,2.17-2.2,2.88a.48.48,0,0,0,.17.77l7.36,3.24a.71.71,0,0,0,1-.35l1.48-3.52L44.47,30C44.57,29.74,44.4,29.47,44.09,29.37Z" transform="translate(-33.28 -26.04)"/><path class="cls-2" d="M44.47,28.87c.1-.23-.07-.5-.38-.61L38,26.12a.72.72,0,0,0-.75.18l-1.67,2.18,7.77,3Z" transform="translate(-33.28 -26.04)"/><path class="cls-3" d="M35.61,28.48l-2.2,2.87a.48.48,0,0,0,.17.78l7.36,3.24a.72.72,0,0,0,1-.36l1.48-3.52Z" transform="translate(-33.28 -26.04)"/><g class="cls-4"><path class="cls-5" d="M33.7,31c-.22.28.06.72.28.91a25.94,25.94,0,0,0,4.31,2.31Z" transform="translate(-33.28 -26.04)"/></g><path class="cls-6" d="M35.61,28.48a4.69,4.69,0,0,1-1.31,1.27c-.44.2-.72,0-.81.33-.58,2,7.41,5.34,7.41,5.34a.71.71,0,0,0,1-.35l1.52-3.58Z" transform="translate(-33.28 -26.04)"/><path class="cls-7" d="M44.5,28.7c.06-.18.1-.34-.33-.46L38,26.12c-.39-.15-.54-.11-.75.18l-.51.6,7.42,2.65Z" transform="translate(-33.28 -26.04)"/><polygon class="cls-8" points="10.9 3.51 10.9 4.62 11.22 3.87 11.25 2.5 10.9 3.51"/><path class="cls-9" d="M39.19,26.87a.25.25,0,1,1,0,.5.25.25,0,1,1,0-.5Z" transform="translate(-33.28 -26.04)"/><ellipse class="cls-9" cx="8.67" cy="2.08" rx="0.3" ry="0.25"/><path class="cls-10" d="M39.48,27.06l2.33.84s.08.06,0,.46c-.1,0-.17-.16-.17-.16l-2.34-.86S39.31,27.28,39.48,27.06Z" transform="translate(-33.28 -26.04)"/><path class="cls-8" d="M39.41,27.15l2.33.84a.58.58,0,0,1,0,.34.4.4,0,0,1-.11-.13l-2.34-.86S39.31,27.3,39.41,27.15Z" transform="translate(-33.28 -26.04)"/><polygon class="cls-9" points="3.49 0.93 3.49 0.86 10.9 3.51 10.9 4.67 10.88 4.67 10.88 3.56 3.49 0.93"/><path class="cls-11" d="M38.21,28.64v0a.59.59,0,0,0-.08.22s0,.08.08.1a.12.12,0,0,0,.15,0,.31.31,0,0,0,.09-.12l.49-.88.28.1-.49.88a.71.71,0,0,1-.2.24.46.46,0,0,1-.43,0c-.16-.07-.24-.15-.25-.26a.67.67,0,0,1,.11-.37v0Z" transform="translate(-33.28 -26.04)"/><path class="cls-11" d="M39.51,28.17l.3.11-.45.8a.4.4,0,0,0-.07.2c0,.09.05.15.16.2a.27.27,0,0,0,.29,0,.47.47,0,0,0,.15-.18l.45-.81.31.11-.46.82a.86.86,0,0,1-.25.3.67.67,0,0,1-.62,0c-.23-.1-.35-.23-.36-.4a.82.82,0,0,1,.11-.35Z" transform="translate(-33.28 -26.04)"/><polygon class="cls-11" points="7.67 2.65 7.98 2.76 7.35 3.87 8.12 4.17 7.97 4.42 6.91 3.98 7.67 2.65"/><path class="cls-5" d="M36.47,30.49l.21-.36a1.78,1.78,0,0,0,.4.12.74.74,0,0,0,.36,0,.54.54,0,0,0,.22-.14l.08-.1.48.19-1.57,2.66-.58-.23,1.08-1.84Z" transform="translate(-33.28 -26.04)"/><path class="cls-5" d="M40.84,31.76a4.13,4.13,0,0,0-.6.27,4.89,4.89,0,0,0-.74.46,4.29,4.29,0,0,0-.58.52,3.37,3.37,0,0,0-.44.54l-.59-.23A4.33,4.33,0,0,1,39.27,32a5.63,5.63,0,0,1,.92-.45L38.75,31l.29-.46,2,.81Z" transform="translate(-33.28 -26.04)"/></svg>