<svg id="Слой_1" data-name="Слой 1" xmlns="http://www.w3.org/2000/svg" viewBox="0 0 12 12"><defs><style>.cls-1{fill:#545454;}.cls-2{fill:#e1e1e1;}.cls-3{fill:#939393;}.cls-4{fill:#979797;}.cls-5{fill:#7b7b7b;}.cls-6{fill:#636363;}.cls-7{fill:#a1a1a1;}.cls-8{fill:#7e7e7e;}.cls-9{fill:#4c4c4c;}.cls-10{fill:#fff;}.cls-11{fill:#6e6e6e;}</style></defs><title>inventoryBtn</title><path class="cls-1" d="M55.6,19.73,57,21.15l-6,3s-.8.38-1.18-.23C48.29,21.5,55.6,19.73,55.6,19.73Z" transform="translate(-45.31 -12.29)"/><path class="cls-2" d="M50.79,22.4s-1.15.43-.94,1.24S51,24,51,24l5.71-2.82a1.57,1.57,0,0,1,.26-1.5Z" transform="translate(-45.31 -12.29)"/><polygon class="cls-3" points="6.45 1.67 11.92 7.32 5.46 10 1.3 3.13 6.45 1.67"/><polygon class="cls-4" points="11.39 7.99 7.56 9.63 11.31 7.81 11.39 7.99"/><polygon class="cls-4" points="11.33 8.47 7.26 10.25 11.25 8.3 11.33 8.47"/><polygon class="cls-4" points="11.37 8.75 6.18 11.13 11.29 8.59 11.37 8.75"/><path class="cls-5" d="M49.77,23.94c-.63-1.4,1-1.65,1-1.65l-4.15-6.87a.93.93,0,0,0-.94,1,1.68,1.68,0,0,0,.18.75Z" transform="translate(-45.31 -12.29)"/><path class="cls-6" d="M46.94,18.32l-1.36,1.42,6,3s.8.39,1.18-.23C54.25,20.1,46.94,18.32,46.94,18.32Z" transform="translate(-45.31 -12.29)"/><path class="cls-2" d="M51.75,21s1.15.42.94,1.23-1.14.33-1.14.33l-5.71-2.82a1.55,1.55,0,0,0-.26-1.49Z" transform="translate(-45.31 -12.29)"/><polygon class="cls-7" points="5.47 0.27 0 5.91 6.46 8.59 10.62 1.73 5.47 0.27"/><polygon class="cls-4" points="0.61 6.41 4.36 8.23 0.53 6.58 0.61 6.41"/><polygon class="cls-4" points="0.67 6.9 4.66 8.85 0.59 7.07 0.67 6.9"/><polygon class="cls-4" points="0.63 7.18 5.74 9.72 0.55 7.35 0.63 7.18"/><path class="cls-8" d="M52.77,22.53c.63-1.4-1-1.65-1-1.65L55.93,14a.92.92,0,0,1,.94,1,1.66,1.66,0,0,1-.18.74Z" transform="translate(-45.31 -12.29)"/><path class="cls-9" d="M55.93,17.15l1.15,1.2L52,20.9s-.67.33-1-.19C49.77,18.65,55.93,17.15,55.93,17.15Z" transform="translate(-45.31 -12.29)"/><path class="cls-2" d="M51.88,19.41s-1,.36-.79,1,.95.28.95.28l4.82-2.38a1.31,1.31,0,0,1,.22-1.26Z" transform="translate(-45.31 -12.29)"/><polygon class="cls-8" points="7.39 0 12 4.76 6.54 7.03 3.04 1.24 7.39 0"/><polygon class="cls-10" points="7.52 1.09 8.41 2.08 5.09 3.34 4.31 2.07 7.52 1.09"/><polygon class="cls-4" points="11.56 5.34 8.32 6.72 11.48 5.17 11.56 5.34"/><polygon class="cls-4" points="11.51 5.75 8.07 7.24 11.43 5.58 11.51 5.75"/><polygon class="cls-4" points="11.54 5.99 7.15 7.98 11.46 5.82 11.54 5.99"/><path class="cls-11" d="M51,20.71c-.53-1.18.84-1.4.84-1.4l-3.51-5.79a.78.78,0,0,0-.79.85,1.42,1.42,0,0,0,.15.63Z" transform="translate(-45.31 -12.29)"/></svg>