<svg id="Слой_1" data-name="Слой 1" xmlns="http://www.w3.org/2000/svg" viewBox="0 0 12 10.37"><defs><style>.cls-1{fill:#6a6a6a;}.cls-2{fill:#8c8c8c;}.cls-3{fill:#7e7e7e;}.cls-4{fill:#a8a8a8;}.cls-5{opacity:0.5;isolation:isolate;}.cls-6{fill:#f8f8f8;}.cls-7{fill:#9a9a9a;}</style></defs><title>photoBtn</title><rect class="cls-1" x="1.42" y="1.28" width="2.63" height="1.32" rx="0.41"/><path class="cls-1" d="M30.29,15.27a.21.21,0,0,1-.22.21h-1a.21.21,0,0,1-.22-.21V15a.21.21,0,0,1,.22-.21h1a.21.21,0,0,1,.22.21v.28Z" transform="translate(-18.91 -13.1)"/><path class="cls-1" d="M30.91,21.73a1,1,0,0,1-1,1h-10a1,1,0,0,1-1-1v-.31h12Z" transform="translate(-18.91 -13.1)"/><path class="cls-2" d="M18.91,16.06a1,1,0,0,1,1-1h10a1,1,0,0,1,1,1v.31h-12Z" transform="translate(-18.91 -13.1)"/><rect class="cls-3" y="3.22" width="12" height="5.3"/><path class="cls-2" d="M29.16,15.66h-6l.61-2a.93.93,0,0,1,.45-.34,10.23,10.23,0,0,1,3.9,0,1,1,0,0,1,.46.34Z" transform="translate(-18.91 -13.1)"/><path class="cls-3" d="M28.87,17.84H23.44L24,15.1a1,1,0,0,1,.41-.46,6.2,6.2,0,0,1,3.52,0,.92.92,0,0,1,.41.46Z" transform="translate(-18.91 -13.1)"/><path class="cls-4" d="M30.28,19.35a4.13,4.13,0,1,1-4.13-4.13A4.12,4.12,0,0,1,30.28,19.35Z" transform="translate(-18.91 -13.1)"/><path class="cls-1" d="M29.82,19.35a3.67,3.67,0,1,1-3.67-3.67A3.66,3.66,0,0,1,29.82,19.35Z" transform="translate(-18.91 -13.1)"/><circle class="cls-3" cx="7.24" cy="6.24" r="2.98"/><circle class="cls-1" cx="7.24" cy="6.24" r="1.6"/><g class="cls-5"><path class="cls-6" d="M28.34,18.08a.92.92,0,1,1-.92-.93A.92.92,0,0,1,28.34,18.08Z" transform="translate(-18.91 -13.1)"/></g><g class="cls-5"><circle class="cls-6" cx="6.67" cy="6.82" r="0.57"/></g><g class="cls-5"><circle class="cls-6" cx="5.64" cy="7.85" r="0.35"/></g><rect class="cls-7" x="0.26" y="3.64" width="2.55" height="4.45" rx="0.41"/><circle class="cls-1" cx="1.9" cy="2.67" r="0.59"/></svg>